<svg xmlns="http://www.w3.org/2000/svg" viewBox="0 0 1048 809"><path d="M769.446 271.28L530.556 4.61C527.89 1.666 524.113-.056 520.168 0c-4 0-7.777 1.722-10.388 4.722L276.446 271.39c-2.666 3.056-3.833 7.056-3.333 11 .556 3.944 2.722 7.5 6.056 9.722L512.5 447.668c2.333 1.555 5.055 2.333 7.722 2.333 2.61 0 5.278-.72 7.556-2.275L766.666 292.17c3.445-2.168 5.667-5.78 6.222-9.78.5-4.055-.722-8.055-3.444-11.11zM514.668 415.722L307.78 277.78 514.668 41.334v374.388zm11.112.222V40.89l212.166 236.89L525.78 415.944z"/><path d="M17.75 569C7.5 569 .25 576.5.25 587s7.25 18 17.5 18 17.5-7.5 17.5-18-7.25-18-17.5-18zM1.5 625.25V759H34V625.25H1.5zm162.5 0h32.5v121c0 38.25-27.75 62.5-70 62.5-21.5 0-40.75-7-56.5-17.75l13-23.5c12.25 9 25.75 14 41.75 14 24 0 39.25-13.25 39.25-34.5v-15.75c-9 13.5-23.5 21-42.5 21-35.5 0-59.5-26-59.5-64.5 0-37.75 23.75-63.5 58.5-63.5 19.25-.25 34.25 7.5 43.5 21v-20zm-35.5 101.5c21 0 35.5-15.75 35.5-38.25s-14.5-38.25-35.5-38.25-35.5 16-35.75 38.25c.25 22.5 14.5 38.25 35.75 38.25zM236 573.5V759h32.5V573.5H236zm132.75 50.75C410.5 624.25 439 651.5 439 692c0 40.75-28.5 68.25-70.25 68.25-42.25 0-70.75-27.5-70.75-68.25 0-40.5 28.5-67.75 70.75-67.75zm0 27.75c-22.5 0-38 16.5-38 40.5s15.5 40.5 38 40.5c22 0 37.5-16.5 37.5-40.5s-15.5-40.5-37.5-40.5zM475 725.25c-9.75 0-17 7.25-17 17.75s7.25 18.25 17 18.25c10 0 17.25-7.75 17.25-18.25S485 725.25 475 725.25zm119.25 1c-7.25 3.5-13.5 5.5-19 5.5-8.75 0-14-4.25-14-17V654.5h38.25v-23.75h-38.25V594H529v36.75h-19l.25 23.75H529v66c0 27.5 17.5 40 39.25 40 11.75 0 23.25-3.5 33.5-9.75l-7.5-24.5zm88.75-102c47 0 67.25 30.75 64 79.25h-98.75c4.25 19 18.75 30.5 38.25 30.5 13.75 0 26.5-5.25 36-15l17.5 18.25c-13.25 14.5-32.75 23-56.25 23-41.5 0-68.75-27.5-68.75-67.75 0-40.75 28-68.25 68-68.25zm-35.5 57.5h70c-.75-19.75-14-32.25-34.25-32.25-19.25 0-32.75 12.5-35.75 32.25zm219.75-14.25L887 648.75c-12-15.5-31.5-24.5-56-24.5-40.25 0-68 27.5-68 68.25 0 40.25 27.5 67.75 67.5 67.75 26.25 0 46.25-10 58-27l-20.25-16.75c-8 10.5-20.5 15.75-36 15.75-21.5 0-36.5-16-36.5-40 0-23.5 15-39.5 36.5-39.5 14.75 0 26.5 5.5 35 14.75zm131-43.5c-22 .25-38.75 8.5-48.25 26.75V573.5h-32.5V759H950v-65.75c0-22 13.25-38.25 35.25-38.5 18.5 0 29.75 11.5 29.75 30.25v74h32.75v-83.5c0-31.75-18.75-51.5-49.5-51.5z"/></svg>